<mxfile host="app.diagrams.net" agent="Mozilla/5.0 (Windows NT 10.0; Win64; x64; rv:132.0) Gecko/20100101 Firefox/132.0" version="24.9.3">
  <diagram name="Side-1" id="5QCO7v8JLTxfKbGBEfMo">
    <mxGraphModel dx="-367" dy="417" grid="1" gridSize="10" guides="1" tooltips="1" connect="1" arrows="1" fold="1" page="1" pageScale="1" pageWidth="10" pageHeight="10" math="0" shadow="0">
      <root>
        <mxCell id="0" />
        <mxCell id="1" parent="0" />
        <mxCell id="t8NLzMtJUix6vNuB-qDw-4" style="edgeStyle=orthogonalEdgeStyle;rounded=0;orthogonalLoop=1;jettySize=auto;html=1;exitX=0;exitY=0.5;exitDx=0;exitDy=0;entryX=0;entryY=0.5;entryDx=0;entryDy=0;" parent="1" edge="1">
          <mxGeometry relative="1" as="geometry">
            <mxPoint x="335" y="635" as="sourcePoint" />
            <Array as="points">
              <mxPoint x="315" y="635" />
              <mxPoint x="315" y="270" />
            </Array>
          </mxGeometry>
        </mxCell>
        <mxCell id="t8NLzMtJUix6vNuB-qDw-5" style="edgeStyle=orthogonalEdgeStyle;rounded=0;orthogonalLoop=1;jettySize=auto;html=1;exitX=0;exitY=0.5;exitDx=0;exitDy=0;entryX=0;entryY=0.5;entryDx=0;entryDy=0;" parent="1" edge="1">
          <mxGeometry relative="1" as="geometry">
            <mxPoint x="335" y="850" as="sourcePoint" />
            <Array as="points">
              <mxPoint x="315" y="850" />
              <mxPoint x="315" y="270" />
            </Array>
          </mxGeometry>
        </mxCell>
        <mxCell id="t8NLzMtJUix6vNuB-qDw-3" style="edgeStyle=orthogonalEdgeStyle;rounded=0;orthogonalLoop=1;jettySize=auto;html=1;exitX=0;exitY=0.5;exitDx=0;exitDy=0;entryX=0;entryY=0.5;entryDx=0;entryDy=0;" parent="1" edge="1">
          <mxGeometry relative="1" as="geometry">
            <mxPoint x="335" y="420" as="sourcePoint" />
            <Array as="points">
              <mxPoint x="315" y="420" />
              <mxPoint x="315" y="270" />
            </Array>
          </mxGeometry>
        </mxCell>
        <mxCell id="t8NLzMtJUix6vNuB-qDw-6" value="" style="edgeStyle=orthogonalEdgeStyle;rounded=0;orthogonalLoop=1;jettySize=auto;html=1;entryX=0.5;entryY=0;entryDx=0;entryDy=0;" parent="1" source="t8NLzMtJUix6vNuB-qDw-7" target="t8NLzMtJUix6vNuB-qDw-21" edge="1">
          <mxGeometry relative="1" as="geometry">
            <mxPoint x="939.9200000000001" y="250" as="targetPoint" />
          </mxGeometry>
        </mxCell>
        <mxCell id="t8NLzMtJUix6vNuB-qDw-7" value="&lt;div&gt;ID 4 Start&lt;/div&gt;&lt;div&gt;&lt;br&gt;&lt;/div&gt;" style="ellipse;whiteSpace=wrap;html=1;" parent="1" vertex="1">
          <mxGeometry x="879.92" y="140" width="120" height="80" as="geometry" />
        </mxCell>
        <mxCell id="t8NLzMtJUix6vNuB-qDw-34" style="edgeStyle=orthogonalEdgeStyle;rounded=0;orthogonalLoop=1;jettySize=auto;html=1;exitX=1;exitY=0.5;exitDx=0;exitDy=0;entryX=0.5;entryY=0;entryDx=0;entryDy=0;" parent="1" source="t8NLzMtJUix6vNuB-qDw-21" target="t8NLzMtJUix6vNuB-qDw-40" edge="1">
          <mxGeometry relative="1" as="geometry">
            <mxPoint x="939.9200000000001" y="535" as="targetPoint" />
          </mxGeometry>
        </mxCell>
        <mxCell id="t8NLzMtJUix6vNuB-qDw-55" value="Nej" style="edgeLabel;html=1;align=center;verticalAlign=middle;resizable=0;points=[];" parent="t8NLzMtJUix6vNuB-qDw-34" vertex="1" connectable="0">
          <mxGeometry x="-0.1983" y="-2" relative="1" as="geometry">
            <mxPoint x="2" y="26" as="offset" />
          </mxGeometry>
        </mxCell>
        <mxCell id="t8NLzMtJUix6vNuB-qDw-21" value="Bevæger cyklen sig?" style="rhombus;whiteSpace=wrap;html=1;" parent="1" vertex="1">
          <mxGeometry x="870" y="335" width="140" height="140" as="geometry" />
        </mxCell>
        <mxCell id="t8NLzMtJUix6vNuB-qDw-30" style="edgeStyle=orthogonalEdgeStyle;rounded=0;orthogonalLoop=1;jettySize=auto;html=1;exitX=1;exitY=0.5;exitDx=0;exitDy=0;exitPerimeter=0;entryX=0.5;entryY=0;entryDx=0;entryDy=0;" parent="1" source="t8NLzMtJUix6vNuB-qDw-28" target="t8NLzMtJUix6vNuB-qDw-21" edge="1">
          <mxGeometry relative="1" as="geometry" />
        </mxCell>
        <mxCell id="t8NLzMtJUix6vNuB-qDw-28" value="Vent 5&amp;nbsp; sekunder" style="strokeWidth=2;html=1;shape=mxgraph.flowchart.delay;whiteSpace=wrap;" parent="1" vertex="1">
          <mxGeometry x="779.92" y="285" width="100" height="60" as="geometry" />
        </mxCell>
        <mxCell id="t8NLzMtJUix6vNuB-qDw-29" style="edgeStyle=orthogonalEdgeStyle;rounded=0;orthogonalLoop=1;jettySize=auto;html=1;exitX=0;exitY=0.5;exitDx=0;exitDy=0;entryX=0.5;entryY=1;entryDx=0;entryDy=0;entryPerimeter=0;" parent="1" source="t8NLzMtJUix6vNuB-qDw-21" target="t8NLzMtJUix6vNuB-qDw-28" edge="1">
          <mxGeometry relative="1" as="geometry" />
        </mxCell>
        <mxCell id="t8NLzMtJUix6vNuB-qDw-32" value="&lt;div&gt;Ja&lt;/div&gt;" style="edgeLabel;html=1;align=center;verticalAlign=middle;resizable=0;points=[];" parent="t8NLzMtJUix6vNuB-qDw-29" vertex="1" connectable="0">
          <mxGeometry x="-0.3404" relative="1" as="geometry">
            <mxPoint x="-7" as="offset" />
          </mxGeometry>
        </mxCell>
        <mxCell id="t8NLzMtJUix6vNuB-qDw-37" style="edgeStyle=orthogonalEdgeStyle;rounded=0;orthogonalLoop=1;jettySize=auto;html=1;exitX=1;exitY=0.5;exitDx=0;exitDy=0;exitPerimeter=0;entryX=0.5;entryY=0;entryDx=0;entryDy=0;" parent="1" source="t8NLzMtJUix6vNuB-qDw-35" target="t8NLzMtJUix6vNuB-qDw-40" edge="1">
          <mxGeometry relative="1" as="geometry">
            <mxPoint x="940" y="650" as="targetPoint" />
          </mxGeometry>
        </mxCell>
        <mxCell id="t8NLzMtJUix6vNuB-qDw-35" value="Vent 5&amp;nbsp; sekunder" style="strokeWidth=2;html=1;shape=mxgraph.flowchart.delay;whiteSpace=wrap;" parent="1" vertex="1">
          <mxGeometry x="779.92" y="485" width="100" height="60" as="geometry" />
        </mxCell>
        <mxCell id="t8NLzMtJUix6vNuB-qDw-36" style="edgeStyle=orthogonalEdgeStyle;rounded=0;orthogonalLoop=1;jettySize=auto;html=1;exitX=0;exitY=0.5;exitDx=0;exitDy=0;entryX=0.5;entryY=1;entryDx=0;entryDy=0;entryPerimeter=0;" parent="1" source="t8NLzMtJUix6vNuB-qDw-40" target="t8NLzMtJUix6vNuB-qDw-35" edge="1">
          <mxGeometry relative="1" as="geometry">
            <mxPoint x="872.4200000000001" y="602.5" as="sourcePoint" />
          </mxGeometry>
        </mxCell>
        <mxCell id="t8NLzMtJUix6vNuB-qDw-38" value="Ja" style="edgeLabel;html=1;align=center;verticalAlign=middle;resizable=0;points=[];" parent="t8NLzMtJUix6vNuB-qDw-36" vertex="1" connectable="0">
          <mxGeometry x="0.0604" y="1" relative="1" as="geometry">
            <mxPoint x="1" y="23" as="offset" />
          </mxGeometry>
        </mxCell>
        <mxCell id="t8NLzMtJUix6vNuB-qDw-52" style="edgeStyle=orthogonalEdgeStyle;rounded=0;orthogonalLoop=1;jettySize=auto;html=1;exitX=1;exitY=0.5;exitDx=0;exitDy=0;entryX=0.5;entryY=0;entryDx=0;entryDy=0;" parent="1" source="t8NLzMtJUix6vNuB-qDw-40" target="t8NLzMtJUix6vNuB-qDw-54" edge="1">
          <mxGeometry relative="1" as="geometry">
            <mxPoint x="939.9200000000001" y="772.4999999999998" as="targetPoint" />
          </mxGeometry>
        </mxCell>
        <mxCell id="t8NLzMtJUix6vNuB-qDw-53" value="Nej" style="edgeLabel;html=1;align=center;verticalAlign=middle;resizable=0;points=[];" parent="t8NLzMtJUix6vNuB-qDw-52" vertex="1" connectable="0">
          <mxGeometry x="0.1695" y="1" relative="1" as="geometry">
            <mxPoint x="20" y="-1" as="offset" />
          </mxGeometry>
        </mxCell>
        <mxCell id="t8NLzMtJUix6vNuB-qDw-40" value="Har den bevæget sig indenfor 3 minutter?" style="rhombus;whiteSpace=wrap;html=1;" parent="1" vertex="1">
          <mxGeometry x="869.92" y="555" width="140" height="140" as="geometry" />
        </mxCell>
        <mxCell id="t8NLzMtJUix6vNuB-qDw-60" style="edgeStyle=orthogonalEdgeStyle;rounded=0;orthogonalLoop=1;jettySize=auto;html=1;exitX=0.5;exitY=1;exitDx=0;exitDy=0;entryX=0.5;entryY=0;entryDx=0;entryDy=0;" parent="1" source="t8NLzMtJUix6vNuB-qDw-54" target="t8NLzMtJUix6vNuB-qDw-59" edge="1">
          <mxGeometry relative="1" as="geometry" />
        </mxCell>
        <mxCell id="t8NLzMtJUix6vNuB-qDw-54" value="Hent GPS-data" style="shape=parallelogram;perimeter=parallelogramPerimeter;whiteSpace=wrap;html=1;fixedSize=1;" parent="1" vertex="1">
          <mxGeometry x="885" y="775" width="120" height="60" as="geometry" />
        </mxCell>
        <mxCell id="t8NLzMtJUix6vNuB-qDw-62" style="edgeStyle=orthogonalEdgeStyle;rounded=0;orthogonalLoop=1;jettySize=auto;html=1;exitX=0.5;exitY=1;exitDx=0;exitDy=0;entryX=0.5;entryY=0;entryDx=0;entryDy=0;" parent="1" source="t8NLzMtJUix6vNuB-qDw-59" target="t8NLzMtJUix6vNuB-qDw-61" edge="1">
          <mxGeometry relative="1" as="geometry" />
        </mxCell>
        <mxCell id="t8NLzMtJUix6vNuB-qDw-59" value="Vent 10 sekunder" style="shape=delay;whiteSpace=wrap;html=1;" parent="1" vertex="1">
          <mxGeometry x="905" y="875" width="80" height="40" as="geometry" />
        </mxCell>
        <mxCell id="t8NLzMtJUix6vNuB-qDw-63" style="edgeStyle=orthogonalEdgeStyle;rounded=0;orthogonalLoop=1;jettySize=auto;html=1;exitX=1;exitY=0.5;exitDx=0;exitDy=0;entryX=1;entryY=0.5;entryDx=0;entryDy=0;" parent="1" source="t8NLzMtJUix6vNuB-qDw-61" target="t8NLzMtJUix6vNuB-qDw-54" edge="1">
          <mxGeometry relative="1" as="geometry">
            <Array as="points">
              <mxPoint x="1035" y="1030" />
              <mxPoint x="1035" y="805" />
            </Array>
          </mxGeometry>
        </mxCell>
        <mxCell id="t8NLzMtJUix6vNuB-qDw-64" value="Nej" style="edgeLabel;html=1;align=center;verticalAlign=middle;resizable=0;points=[];" parent="t8NLzMtJUix6vNuB-qDw-63" vertex="1" connectable="0">
          <mxGeometry x="-0.0547" y="-1" relative="1" as="geometry">
            <mxPoint as="offset" />
          </mxGeometry>
        </mxCell>
        <mxCell id="t8NLzMtJUix6vNuB-qDw-66" style="edgeStyle=orthogonalEdgeStyle;rounded=0;orthogonalLoop=1;jettySize=auto;html=1;exitX=0.5;exitY=1;exitDx=0;exitDy=0;entryX=0.5;entryY=0;entryDx=0;entryDy=0;" parent="1" source="t8NLzMtJUix6vNuB-qDw-61" target="t8NLzMtJUix6vNuB-qDw-65" edge="1">
          <mxGeometry relative="1" as="geometry" />
        </mxCell>
        <mxCell id="wt8gnzURPWGUX9V3AWWs-1" value="Ja" style="edgeLabel;html=1;align=center;verticalAlign=middle;resizable=0;points=[];" vertex="1" connectable="0" parent="t8NLzMtJUix6vNuB-qDw-66">
          <mxGeometry x="-0.008" relative="1" as="geometry">
            <mxPoint as="offset" />
          </mxGeometry>
        </mxCell>
        <mxCell id="t8NLzMtJUix6vNuB-qDw-61" value="Har cyklen bevæget sig siden sidste GPS-data?" style="rhombus;whiteSpace=wrap;html=1;" parent="1" vertex="1">
          <mxGeometry x="875" y="960" width="140" height="140" as="geometry" />
        </mxCell>
        <mxCell id="t8NLzMtJUix6vNuB-qDw-65" value="&lt;div&gt;Send data til&lt;/div&gt;&lt;div&gt;ThingsBoard&lt;br&gt;&lt;/div&gt;" style="rounded=0;whiteSpace=wrap;html=1;" parent="1" vertex="1">
          <mxGeometry x="885" y="1150" width="120" height="60" as="geometry" />
        </mxCell>
        <mxCell id="wt8gnzURPWGUX9V3AWWs-2" value="&lt;div&gt;Fra GPS-&lt;/div&gt;&lt;div&gt;modulet&lt;/div&gt;" style="strokeWidth=2;html=1;shape=mxgraph.flowchart.annotation_2;align=left;labelPosition=right;pointerEvents=1;" vertex="1" parent="1">
          <mxGeometry x="1045" y="755" width="50" height="100" as="geometry" />
        </mxCell>
      </root>
    </mxGraphModel>
  </diagram>
</mxfile>
